# xmcd
#
# Track frame offsets:
#	183
#	13483
#	25683
#	41158
#	54595
#	66633
#	80020
#	92883
#	104870
#	114745
#	131945
#	146708
#	158833
#	171533
#	184795
#	196045
#	208008
#	219320
#	238683
#	256495
#	275858
#	291070
#	310683
#	323608
# Disc length: 4487 seconds
# Revision: 1
# Processed by: cddbd v1.5.1PL2 Copyright (c) Steve Scherf et al.
#
# Submitted via: libkcddb 0.10
#
DISCID=80118518
DTITLE=The Mike Sceptre Singers - Green Green Grass Of Home
DYEAR=1989
DGENRE=Country
TTITLE0=Green Green Grass Of Home
TTITLE1=Let It Be Me
TTITLE2=(I Never Promised You A) Rose Garden
TTITLE3=Always On My Mind
TTITLE4=Oh, Lonesome Me
TTITLE5=I Walk The Line
TTITLE6=Jolene
TTITLE7=Behind Closed Doors
TTITLE8=Help Me Make It Through The Night
TTITLE9=Rhinestone Cowboy
TTITLE10=Your Cheatin´Heart
TTITLE11=Stand By Your Man
TTITLE12=Wasted Days and Wasted Nights
TTITLE13=Ruby
TTITLE14=He´ll Have To Go
TTITLE15=Don´t It Make My Brown Eyes Blue
TTITLE16=Jambalaya
TTITLE17=I Can´t Stop Loving You
TTITLE18=You Needed Me
TTITLE19=El Paso
TTITLE20=Together Again
TTITLE21=Coward Of The County
TTITLE22=Please Help Me I´m Falling
TTITLE23=All I Ever Need Is You
EXTD=
EXTT0=
EXTT1=
EXTT2=
EXTT3=
EXTT4=
EXTT5=
EXTT6=
EXTT7=
EXTT8=
EXTT9=
EXTT10=
EXTT11=
EXTT12=
EXTT13=
EXTT14=
EXTT15=
EXTT16=
EXTT17=
EXTT18=
EXTT19=
EXTT20=
EXTT21=
EXTT22=
EXTT23=
PLAYORDER=
